<?xml version="1.0" encoding="utf-8"?>
<!-- Generator: Adobe Illustrator 25.2.0, SVG Export Plug-In . SVG Version: 6.00 Build 0)  -->
<svg version="1.1" id="Affordable" xmlns="http://www.w3.org/2000/svg" xmlns:xlink="http://www.w3.org/1999/xlink" x="0px" y="0px"
	 viewBox="0 0 595 595" style="enable-background:new 0 0 595 595;" xml:space="preserve">
<style type="text/css">
	.st0{opacity:0;}
	.st1{fill:#FFFFFF;}
	.st2{fill:none;stroke:#707070;}
	.st3{display:none;}
	.st4{display:inline;fill-rule:evenodd;clip-rule:evenodd;fill:#3D3F96 ;}
	.st5{fill:#3D3F96 ;}
</style>
<g id="Rectangle_15825" class="st0">
	<rect class="st1" width="595" height="595"/>
	<rect x="0.5" y="0.5" class="st2" width="594" height="594"/>
</g>
<g id="Group_38953" transform="translate(55.969 59.542)" class="st3">
	<path id="Path_31070" class="st4" d="M0,132.2v302.1c0.1,23.2,18.8,42,42,42h398.7c23.2-0.1,42-18.8,42-42v-84.5H369.9
		c-36.8,0-66.6-29.8-66.5-66.6c0-36.7,29.8-66.5,66.5-66.5h112.8v-84.5c-0.1-23.2-18.8-41.9-42-42H42C18.8,90.3,0.1,109,0,132.2z"/>
	<path id="Path_31071" class="st4" d="M87.5,78.2h312.8L379.4,0L87.5,78.2z"/>
	<path id="Path_31072" class="st4" d="M482.7,228.7H369.9c-30.1,0.1-54.5,24.7-54.4,54.8c0.1,30,24.4,54.2,54.4,54.4h112.8
		L482.7,228.7z M397.1,264.1c10.6,10.6,10.6,27.7,0,38.3c-10.6,10.6-27.7,10.6-38.3,0s-10.6-27.7,0-38.3c5.1-5.1,12-7.9,19.2-7.9
		C385.2,256.2,392,259,397.1,264.1z"/>
</g>
<g id="Group_40017" transform="translate(19.079 0)">
	<circle id="Ellipse_7252" class="st5" cx="436.9" cy="152.3" r="67.6"/>
	<path id="Path_31444" class="st5" d="M564.4,279.8c-0.1-0.9-5.1-4.2-9.3-6.5l-64.8-35.4c-2.1-1.1-4-2.2-5.6-3
		c-29.6,17.2-66,17.2-95.6,0c-1.6,0.8-3.6,1.9-5.6,3l-31.6,17.2c21.2,36.1,13.2,82.2-18.9,109.1l1.1,0.6c1.7,0.9,3.7,2,5.9,3.2
		l64.8,35.4c12.7,6.9,17.6,12.2,18.7,20c0.2,1.4,0.6,3.8-0.6,14.8l-5.2,51.4c50.7-15.5,96-39.2,132.9-68.8l13.1-130.7
		C564.1,286.7,564.3,283.3,564.4,279.8z"/>
	<circle id="Ellipse_7253" class="st5" cx="119.8" cy="152.3" r="67.6"/>
	<path id="Path_31445" class="st5" d="M137.1,412.5c1.2-1.4,3.1-3.4,13.5-9.1l64.8-35.4c2.1-1.2,4.2-2.3,5.9-3.2l1.1-0.6
		c-32.2-27-40.1-73.5-18.6-109.6l-30.6-16.7c-2.1-1.1-4-2.2-5.6-3c-29.6,17.2-66.1,17.2-95.6,0c-1.6,0.8-3.6,1.9-5.6,3L1.6,273.3
		c-3.1,1.6-6,3.4-8.8,5.4c-0.6,0.6-0.4,6.7,0.1,11.5L6.4,423.5c36.7,28.7,81.4,51.6,131.4,66.7l-5.2-52
		C131.2,425.6,131.6,418.5,137.1,412.5z"/>
	<path id="Path_31446" class="st5" d="M277.7,231c-37.3,0-67.6,30.2-67.6,67.6s30.2,67.6,67.6,67.6c37.3,0,67.6-30.2,67.6-67.6
		C345.2,261.2,315,231,277.7,231C277.7,231,277.7,231,277.7,231z"/>
	<path id="Path_31447" class="st5" d="M405.2,426c-0.1-0.9-5.1-4.2-9.3-6.5l-64.8-35.4c-2.1-1.1-4-2.2-5.6-3
		c-29.6,17.2-66.1,17.2-95.6,0c-1.6,0.8-3.6,1.9-5.6,3l-64.8,35.4c-3.1,1.6-6,3.4-8.8,5.4c-0.6,0.6-0.4,6.7,0.1,11.5l5.9,59.1
		c79.4,19.9,162.5,19.8,241.9-0.5l5.9-58.7C405,432.9,405.2,429.5,405.2,426z"/>
</g>
</svg>
